<svg width="631" height="476" viewBox="0 0 631 476" fill="none" xmlns="http://www.w3.org/2000/svg">
<g clip-path="url(#clip0_18002_1217)">
<rect width="631" height="476" fill="#F7F8FD"/>
<path d="M122.6 92.4004V462.6H21C17.9072 462.6 15.4004 460.093 15.4004 457V92.4004H122.6Z" fill="#F7F8FD" stroke="#BEC1D9" stroke-width="0.8"/>
<path d="M614.6 92.4004V453C614.6 458.302 610.302 462.6 605 462.6H123.4V92.4004H614.6Z" fill="#DAE0ED" stroke="#BEC1D9" stroke-width="0.8"/>
<path d="M150.832 175.918H152.32C152.32 176.878 153.296 177.87 154.688 177.87C156.096 177.87 156.784 177.086 156.912 176.254C156.992 175.07 156.032 174.51 155.04 174.286L153.616 173.934C151.264 173.342 150.928 172.014 150.928 171.054C150.928 169.198 152.624 167.95 154.496 167.95C156.496 167.95 158.048 169.198 158.048 171.182H156.56C156.56 170.078 155.696 169.374 154.48 169.374C153.392 169.374 152.416 170.03 152.416 171.038C152.416 171.518 152.592 172.238 153.984 172.574L155.424 172.926C157.488 173.454 158.608 174.606 158.368 176.382C158.16 177.982 156.864 179.262 154.688 179.262C152.448 179.262 150.832 177.646 150.832 175.918ZM162.422 174.958H166.07L164.246 170.062L162.422 174.958ZM166.582 176.302H161.91L160.838 179.102H159.254L163.446 168.078H165.046L169.222 179.102H167.654L166.582 176.302ZM170.895 168.078H175.295C177.631 168.078 178.575 169.806 178.575 171.534C178.575 173.262 177.631 174.974 175.295 174.974H172.399V179.102H170.895V168.078ZM175.279 169.47H172.399V173.582H175.199C176.543 173.582 177.087 172.558 177.087 171.534C177.087 170.526 176.559 169.47 175.279 169.47Z" fill="#2F3B45"/>
<path d="M198.158 275.919L202.046 267.823H203.406L204.75 278.847H203.278L202.27 270.559L198.83 277.631H197.518L194.046 270.559L193.038 278.847H191.566L192.91 267.823H194.27L198.158 275.919ZM212.665 278.847V277.695C212.169 278.527 211.081 279.007 210.041 279.007C207.993 279.007 206.249 277.471 206.249 275.103C206.249 272.719 207.993 271.215 210.041 271.215C211.081 271.215 212.153 271.647 212.665 272.495V271.375H214.105V278.847H212.665ZM212.649 275.087C212.649 273.487 211.385 272.639 210.169 272.639C208.825 272.639 207.737 273.615 207.737 275.087C207.737 276.559 208.825 277.583 210.169 277.583C211.497 277.583 212.649 276.671 212.649 275.087ZM217.982 271.375V278.847H216.542V271.375H217.982ZM216.254 268.623C216.254 268.063 216.702 267.679 217.262 267.679C217.822 267.679 218.27 268.063 218.27 268.623C218.27 269.183 217.822 269.567 217.262 269.567C216.702 269.567 216.254 269.183 216.254 268.623ZM221.873 274.815V278.847H220.417V271.375H221.873V272.495C222.305 271.599 223.393 271.215 224.209 271.215C226.081 271.215 227.089 272.415 227.089 274.527V278.847H225.633V274.623C225.633 273.359 225.009 272.639 223.985 272.639C222.929 272.639 221.873 273.231 221.873 274.815ZM233.769 267.311V268.703H232.953C231.737 268.703 231.561 269.663 231.561 270.623V271.375H233.289V272.607H231.561V278.847H230.089V272.607H228.649V271.375H230.089V270.623C230.089 268.655 230.937 267.311 232.953 267.311H233.769ZM236.373 276.127V278.847H234.917V271.375H236.373V273.055C236.757 271.727 237.477 271.215 238.453 271.215C238.981 271.215 239.541 271.359 239.749 271.503L239.525 272.863C239.125 272.671 238.725 272.607 238.421 272.607C236.981 272.607 236.373 274.143 236.373 276.127ZM246.962 278.847V277.695C246.466 278.527 245.378 279.007 244.338 279.007C242.29 279.007 240.546 277.471 240.546 275.103C240.546 272.719 242.29 271.215 244.338 271.215C245.378 271.215 246.45 271.647 246.962 272.495V271.375H248.402V278.847H246.962ZM246.946 275.087C246.946 273.487 245.682 272.639 244.466 272.639C243.122 272.639 242.034 273.615 242.034 275.087C242.034 276.559 243.122 277.583 244.466 277.583C245.794 277.583 246.946 276.671 246.946 275.087ZM259.431 272.639C258.199 272.639 257.447 273.567 257.447 274.815V278.847H255.991V274.607C255.991 273.375 255.351 272.639 254.375 272.639C253.335 272.639 252.295 273.247 252.295 274.815V278.847H250.839V271.375H252.295V272.495C252.679 271.663 253.751 271.295 254.359 271.247C254.647 271.231 254.919 271.247 255.175 271.295C256.119 271.439 256.775 271.935 257.127 272.751C257.815 271.423 258.999 271.215 259.719 271.215C261.591 271.215 262.599 272.415 262.599 274.527V278.847H261.143V274.623C261.143 273.391 260.519 272.639 259.431 272.639ZM265.893 274.527H270.533C270.357 273.263 269.477 272.527 268.261 272.527C267.029 272.527 266.069 273.263 265.893 274.527ZM271.973 275.087C271.973 275.263 271.973 275.487 271.957 275.663H265.893C266.069 276.927 267.029 277.695 268.309 277.695C269.205 277.695 270.021 277.295 270.453 276.543C270.837 276.719 271.301 276.847 271.701 277.023C271.061 278.351 269.717 279.007 268.261 279.007C266.133 279.007 264.437 277.455 264.437 275.087C264.437 272.719 266.133 271.215 268.261 271.215C270.389 271.215 271.973 272.719 271.973 275.087Z" fill="#2F3B45"/>
<path d="M245.215 378.386H248.863L247.039 373.49L245.215 378.386ZM249.375 379.73H244.703L243.631 382.53H242.047L246.239 371.506H247.839L252.015 382.53H250.447L249.375 379.73ZM264.212 371.506H265.812L262.084 382.53H260.788L258.836 375.65L256.9 382.53H255.604L251.876 371.506H253.476L256.244 380.13L258.276 372.994H259.412L261.444 380.13L264.212 371.506ZM266.796 379.346H268.284C268.284 380.306 269.26 381.298 270.652 381.298C272.06 381.298 272.748 380.514 272.876 379.682C272.956 378.498 271.996 377.938 271.004 377.714L269.58 377.362C267.228 376.77 266.892 375.442 266.892 374.482C266.892 372.626 268.588 371.378 270.46 371.378C272.46 371.378 274.012 372.626 274.012 374.61H272.524C272.524 373.506 271.66 372.802 270.444 372.802C269.356 372.802 268.38 373.458 268.38 374.466C268.38 374.946 268.556 375.666 269.948 376.002L271.388 376.354C273.452 376.882 274.572 378.034 274.332 379.81C274.124 381.41 272.828 382.69 270.652 382.69C268.412 382.69 266.796 381.074 266.796 379.346Z" fill="#2F3B45"/>
<path d="M337.678 250.41L341.467 243.848H333.89L337.678 250.41ZM529.294 250.41L533.082 243.848H525.505L529.294 250.41ZM337.678 244.504H338.334V241.223H337.678H337.022V244.504H337.678ZM348.178 230.724V231.38H518.794V230.724V230.068H348.178V230.724ZM529.294 241.223H528.637V244.504H529.294H529.95V241.223H529.294ZM518.794 230.724V231.38C524.23 231.38 528.637 235.787 528.637 241.223H529.294H529.95C529.95 235.062 524.955 230.068 518.794 230.068V230.724ZM337.678 241.223H338.334C338.334 235.787 342.741 231.38 348.178 231.38V230.724V230.068C342.017 230.068 337.022 235.062 337.022 241.223H337.678Z" fill="#4040D9"/>
<path d="M332.429 352.78L336.217 346.218H328.64L332.429 352.78ZM533.231 352.78L537.02 346.218H529.442L533.231 352.78ZM332.429 343.921H333.085V340.968H332.429H331.772V343.921H332.429ZM332.429 340.968H333.085C333.085 340.31 333.149 339.668 333.272 339.047L332.628 338.919L331.985 338.792C331.845 339.496 331.772 340.224 331.772 340.968H332.429ZM334.197 335.135L334.742 335.5C335.461 334.426 336.386 333.502 337.459 332.783L337.094 332.237L336.729 331.692C335.513 332.506 334.466 333.553 333.652 334.77L334.197 335.135ZM340.879 330.669L341.006 331.313C341.627 331.19 342.27 331.125 342.928 331.125V330.469V329.813C342.184 329.813 341.456 329.886 340.752 330.025L340.879 330.669ZM342.928 330.469V331.125H345.572V330.469V329.813H342.928V330.469ZM350.861 330.469V331.125H356.149V330.469V329.813H350.861V330.469ZM361.437 330.469V331.125H366.726V330.469V329.813H361.437V330.469ZM372.014 330.469V331.125H377.302V330.469V329.813H372.014V330.469ZM382.591 330.469V331.125H387.879V330.469V329.813H382.591V330.469ZM393.167 330.469V331.125H398.456V330.469V329.813H393.167V330.469ZM403.744 330.469V331.125H409.032V330.469V329.813H403.744V330.469ZM414.321 330.469V331.125H419.609V330.469V329.813H414.321V330.469ZM424.897 330.469V331.125H430.186V330.469V329.813H424.897V330.469ZM435.474 330.469V331.125H440.762V330.469V329.813H435.474V330.469ZM446.051 330.469V331.125H451.339V330.469V329.813H446.051V330.469ZM456.627 330.469V331.125H461.916V330.469V329.813H456.627V330.469ZM467.204 330.469V331.125H472.492V330.469V329.813H467.204V330.469ZM477.781 330.469V331.125H483.069V330.469V329.813H477.781V330.469ZM488.357 330.469V331.125H493.646V330.469V329.813H488.357V330.469ZM498.934 330.469V331.125H504.222V330.469V329.813H498.934V330.469ZM509.511 330.469V331.125H514.799V330.469V329.813H509.511V330.469ZM520.087 330.469V331.125H522.732V330.469V329.813H520.087V330.469ZM522.732 330.469V331.125C523.39 331.125 524.032 331.19 524.653 331.313L524.781 330.669L524.908 330.025C524.204 329.886 523.476 329.813 522.732 329.813V330.469ZM528.565 332.237L528.2 332.783C529.274 333.502 530.199 334.426 530.917 335.5L531.463 335.135L532.008 334.77C531.194 333.553 530.147 332.506 528.93 331.692L528.565 332.237ZM533.031 338.919L532.388 339.047C532.51 339.668 532.575 340.31 532.575 340.968H533.231H533.887C533.887 340.224 533.814 339.496 533.675 338.792L533.031 338.919ZM533.231 340.968H532.575V343.921H533.231H533.887V340.968H533.231Z" fill="#AFB4B8"/>
<path d="M434.142 204.475C434.142 204.113 433.848 203.819 433.486 203.819C433.123 203.819 432.83 204.113 432.83 204.475H433.486H434.142ZM433.486 250.41L437.275 243.848H429.697L433.486 250.41ZM433.486 204.475H432.83V244.504H433.486H434.142V204.475H433.486Z" fill="#4040D9"/>
<path d="M434.142 304.22C434.142 303.858 433.848 303.564 433.486 303.564C433.123 303.564 432.83 303.858 432.83 304.22H433.486H434.142ZM433.486 352.78L437.275 346.218H429.697L433.486 352.78ZM432.83 306.648C432.83 307.011 433.123 307.304 433.486 307.304C433.848 307.304 434.142 307.011 434.142 306.648H433.486H432.83ZM434.142 311.504C434.142 311.142 433.848 310.848 433.486 310.848C433.123 310.848 432.83 311.142 432.83 311.504H433.486H434.142ZM432.83 316.36C432.83 316.723 433.123 317.016 433.486 317.016C433.848 317.016 434.142 316.723 434.142 316.36H433.486H432.83ZM434.142 321.216C434.142 320.854 433.848 320.56 433.486 320.56C433.123 320.56 432.83 320.854 432.83 321.216H433.486H434.142ZM432.83 326.072C432.83 326.435 433.123 326.728 433.486 326.728C433.848 326.728 434.142 326.435 434.142 326.072H433.486H432.83ZM434.142 330.928C434.142 330.566 433.848 330.272 433.486 330.272C433.123 330.272 432.83 330.566 432.83 330.928H433.486H434.142ZM432.83 335.784C432.83 336.147 433.123 336.44 433.486 336.44C433.848 336.44 434.142 336.147 434.142 335.784H433.486H432.83ZM434.142 340.64C434.142 340.278 433.848 339.984 433.486 339.984C433.123 339.984 432.83 340.278 432.83 340.64H433.486H434.142ZM432.83 345.496C432.83 345.859 433.123 346.153 433.486 346.153C433.848 346.153 434.142 345.859 434.142 345.496H433.486H432.83ZM434.142 350.352C434.142 349.99 433.848 349.696 433.486 349.696C433.123 349.696 432.83 349.99 432.83 350.352H433.486H434.142ZM433.486 304.22H432.83V306.648H433.486H434.142V304.22H433.486ZM433.486 311.504H432.83V316.36H433.486H434.142V311.504H433.486ZM433.486 321.216H432.83V326.072H433.486H434.142V321.216H433.486ZM433.486 330.928H432.83V335.784H433.486H434.142V330.928H433.486ZM433.486 340.64H432.83V345.496H433.486H434.142V340.64H433.486Z" fill="#BEC1D9"/>
<rect x="37" y="118" width="68" height="2" rx="1" fill="#A4B9EF"/>
<rect x="37" y="207" width="68" height="2" rx="1" fill="#A4B9EF"/>
<rect x="37" y="247" width="68" height="2" rx="1" fill="#A4B9EF"/>
<rect x="37" y="287" width="68" height="2" rx="1" fill="#A4B9EF"/>
<rect x="37" y="327" width="68" height="2" rx="1" fill="#A4B9EF"/>
<rect x="37" y="227" width="68" height="2" rx="1" fill="#A4B9EF"/>
<rect x="37" y="267" width="68" height="2" rx="1" fill="#A4B9EF"/>
<rect x="37" y="307" width="68" height="2" rx="1" fill="#A4B9EF"/>
<rect x="37" y="347" width="68" height="2" rx="1" fill="#A4B9EF"/>
<rect x="51" y="143.227" width="54" height="2" rx="1" fill="#788FEC"/>
<rect x="51" y="163.227" width="54" height="2" rx="1" fill="#788FEC"/>
<rect x="51" y="181.227" width="54" height="2" rx="1" fill="#788FEC"/>
<path d="M21 14.4004H609C612.093 14.4004 614.6 16.9072 614.6 20V91.5996H15.4004V20C15.4004 16.9072 17.9072 14.4004 21 14.4004Z" fill="#F7F8FD" stroke="#BEC1D9" stroke-width="0.8"/>
<rect x="296.337" y="353.834" width="77.7668" height="52.6849" rx="3.28109" fill="#F7F8FD" stroke="#BEC2D8" stroke-width="1.31243"/>
<path d="M299.842 366.941H370.597" stroke="#758DE5" stroke-width="0.656217"/>
<rect x="300.104" y="375.412" width="31.8501" height="2.11754" rx="1.05877" fill="#A4B9EF"/>
<rect x="300.104" y="358.471" width="70.778" height="2.11754" rx="1.05877" fill="#A4B9EF"/>
<rect x="300.104" y="384.941" width="31.8501" height="2.11754" rx="1.05877" fill="#A4B9EF"/>
<circle cx="306.836" cy="396.747" r="5.90596" fill="#626C73"/>
<path d="M304.867 398.716L308.805 394.778" stroke="white" stroke-width="1.07381" stroke-linecap="round"/>
<path d="M308.805 398.716L304.867 394.778" stroke="white" stroke-width="1.07381" stroke-linecap="round"/>
<rect x="393.457" y="353.834" width="77.7668" height="52.6849" rx="3.28109" fill="#F7F8FD" stroke="#BEC2D8" stroke-width="1.31243"/>
<path d="M396.963 366.941H467.718" stroke="#758DE5" stroke-width="0.656217"/>
<rect x="397.224" y="375.412" width="31.8501" height="2.11754" rx="1.05877" fill="#A4B9EF"/>
<rect x="397.224" y="358.471" width="70.778" height="2.11754" rx="1.05877" fill="#A4B9EF"/>
<rect x="397.224" y="384.941" width="31.8501" height="2.11754" rx="1.05877" fill="#A4B9EF"/>
<circle cx="403.956" cy="396.747" r="5.90596" fill="#626C73"/>
<path d="M401.988 398.716L405.925 394.778" stroke="white" stroke-width="1.07381" stroke-linecap="round"/>
<path d="M405.925 398.716L401.987 394.778" stroke="white" stroke-width="1.07381" stroke-linecap="round"/>
<rect x="490.577" y="353.834" width="77.7668" height="52.6849" rx="3.28109" fill="#F7F8FD" stroke="#BEC2D8" stroke-width="1.31243"/>
<path d="M494.083 366.941H564.838" stroke="#758DE5" stroke-width="0.656217"/>
<rect x="494.344" y="375.412" width="31.8501" height="2.11754" rx="1.05877" fill="#A4B9EF"/>
<rect x="494.344" y="358.471" width="70.778" height="2.11754" rx="1.05877" fill="#A4B9EF"/>
<rect x="494.344" y="384.941" width="31.8501" height="2.11754" rx="1.05877" fill="#A4B9EF"/>
<circle cx="501.076" cy="396.747" r="5.90596" fill="#626C73"/>
<path d="M499.108 398.716L503.045 394.778" stroke="white" stroke-width="1.07381" stroke-linecap="round"/>
<path d="M503.045 398.716L499.108 394.778" stroke="white" stroke-width="1.07381" stroke-linecap="round"/>
<rect x="301.586" y="251.067" width="77.7668" height="52.6849" rx="3.28109" fill="#F7F8FD" stroke="#FF5A4E" stroke-width="1.31243"/>
<path d="M305.092 264.406H375.847" stroke="#758DE5" stroke-width="0.656217"/>
<rect x="304.867" y="270.097" width="31.8501" height="2.11754" rx="1.05877" fill="#A4B9EF"/>
<rect x="305.354" y="255.936" width="70.778" height="2.11754" rx="1.05877" fill="#A4B9EF"/>
<rect x="304.867" y="279.626" width="31.8501" height="2.11754" rx="1.05877" fill="#A4B9EF"/>
<path d="M307.492 293.496C307.492 293.397 307.572 293.317 307.671 293.317C307.769 293.317 307.849 293.397 307.849 293.496C307.849 296.053 309.92 298.131 312.467 298.131C312.978 298.131 313.467 298.049 313.924 297.895L313.398 296.346L316.023 297.002L314.711 299.627L314.112 298.21C313.597 298.391 313.045 298.49 312.467 298.49C309.722 298.49 307.492 296.251 307.492 293.496Z" fill="#FF5A4E"/>
<path d="M314.317 297.921C312.217 298.445 307.912 298.235 307.492 293.196" stroke="#FF5A4E" stroke-width="1.04995" stroke-linecap="round"/>
<path d="M310.642 289.521C312.707 288.872 317.272 288.715 317.991 293.721" stroke="#FF5A4E" stroke-width="1.04995" stroke-linecap="round"/>
<path d="M317.612 293.939C317.612 293.606 317.584 293.29 317.514 292.976L317.514 292.975C317.049 290.783 315.075 289.144 312.708 289.144C312.026 289.144 311.377 289.281 310.787 289.527L312.086 291.096H308.805L309.461 287.815L310.562 289.218C311.218 288.932 311.945 288.773 312.708 288.773C315.259 288.773 317.383 290.539 317.885 292.898L317.911 293.027C317.968 293.328 317.992 293.629 317.992 293.939C317.992 294.041 317.907 294.124 317.802 294.124C317.697 294.124 317.612 294.041 317.612 293.939Z" fill="#FF5A4E"/>
<rect x="393.152" y="251.298" width="77.7668" height="52.6849" rx="3.28109" fill="#F7F8FD" stroke="#FF5A4E" stroke-width="1.31243"/>
<path d="M396.657 264.406H467.413" stroke="#758DE5" stroke-width="0.656217"/>
<rect x="396.919" y="272.876" width="31.8501" height="2.11754" rx="1.05877" fill="#A4B9EF"/>
<rect x="396.919" y="255.936" width="70.778" height="2.11754" rx="1.05877" fill="#A4B9EF"/>
<rect x="396.919" y="282.405" width="31.8501" height="2.11754" rx="1.05877" fill="#A4B9EF"/>
<path d="M399.363 293.496C399.363 293.397 399.443 293.317 399.541 293.317C399.64 293.317 399.72 293.397 399.72 293.496C399.72 296.053 401.79 298.131 404.338 298.131C404.849 298.131 405.338 298.049 405.795 297.895L405.269 296.346L407.893 297.002L406.581 299.627L405.982 298.21C405.468 298.391 404.915 298.49 404.338 298.49C401.593 298.49 399.363 296.251 399.363 293.496Z" fill="#FF5A4E"/>
<path d="M406.187 297.921C404.087 298.445 399.783 298.235 399.363 293.196" stroke="#FF5A4E" stroke-width="1.04995" stroke-linecap="round"/>
<path d="M402.512 289.521C404.577 288.872 409.142 288.715 409.862 293.721" stroke="#FF5A4E" stroke-width="1.04995" stroke-linecap="round"/>
<path d="M409.483 293.939C409.483 293.606 409.454 293.29 409.384 292.976L409.384 292.975C408.919 290.783 406.945 289.144 404.579 289.144C403.897 289.144 403.247 289.281 402.657 289.527L403.956 291.096H400.675L401.331 287.815L402.432 289.218C403.089 288.932 403.815 288.773 404.579 288.773C407.129 288.773 409.254 290.539 409.755 292.898L409.782 293.027C409.839 293.328 409.862 293.629 409.862 293.939C409.862 294.041 409.777 294.124 409.672 294.124C409.568 294.124 409.483 294.041 409.483 293.939Z" fill="#FF5A4E"/>
<rect x="197.904" y="149.656" width="77.7668" height="52.6849" rx="3.28109" fill="#F7F8FD" stroke="#4040D9" stroke-width="1.31243"/>
<path d="M201.41 162.764L272.165 162.764" stroke="#758DE5" stroke-width="0.656217"/>
<rect x="201.671" y="171.234" width="31.8501" height="2.11754" rx="1.05877" fill="#A4B9EF"/>
<rect x="201.671" y="154.294" width="70.778" height="2.11754" rx="1.05877" fill="#A4B9EF"/>
<rect x="201.671" y="180.763" width="31.8501" height="2.11754" rx="1.05877" fill="#A4B9EF"/>
<rect x="296.337" y="149.656" width="77.7668" height="52.6849" rx="3.28109" fill="#F7F8FD" stroke="#4040D9" stroke-width="1.31243"/>
<path d="M299.843 162.764L370.598 162.764" stroke="#758DE5" stroke-width="0.656217"/>
<rect x="300.104" y="171.234" width="31.8501" height="2.11754" rx="1.05877" fill="#A4B9EF"/>
<rect x="300.104" y="154.294" width="70.778" height="2.11754" rx="1.05877" fill="#A4B9EF"/>
<rect x="300.104" y="180.763" width="31.8501" height="2.11754" rx="1.05877" fill="#A4B9EF"/>
<rect x="392.144" y="149.656" width="77.7668" height="52.6849" rx="3.28109" fill="#F7F8FD" stroke="#4040D9" stroke-width="1.31243"/>
<path d="M395.65 162.764L466.405 162.764" stroke="#758DE5" stroke-width="0.656217"/>
<rect x="395.912" y="171.234" width="31.8501" height="2.11754" rx="1.05877" fill="#A4B9EF"/>
<rect x="395.912" y="154.294" width="70.778" height="2.11754" rx="1.05877" fill="#A4B9EF"/>
<rect x="395.912" y="180.763" width="31.8501" height="2.11754" rx="1.05877" fill="#A4B9EF"/>
<path d="M275.974 176.872L275.318 176.869L275.312 178.181L275.969 178.184L275.971 177.528L275.974 176.872ZM295.701 177.613L289.156 173.796L289.123 181.373L295.701 177.613ZM275.971 177.528L275.969 178.184L289.793 178.243L289.796 177.587L289.798 176.931L275.974 176.872L275.971 177.528Z" fill="#4040D9"/>
<path d="M374.426 176.258L373.77 176.258L373.77 177.57L374.426 177.57L374.426 176.914L374.426 176.258ZM391.488 176.914L384.926 173.125L384.926 180.703L391.488 176.914ZM374.426 176.914L374.426 177.57L385.582 177.57L385.582 176.914L385.582 176.258L374.426 176.258L374.426 176.914Z" fill="#4040D9"/>
<rect x="488.879" y="251.298" width="77.7668" height="52.6849" rx="3.28109" fill="#F7F8FD" stroke="#FF5A4E" stroke-width="1.31243"/>
<path d="M492.385 264.406H563.14" stroke="#758DE5" stroke-width="0.656217"/>
<rect x="492.647" y="272.876" width="31.8501" height="2.11754" rx="1.05877" fill="#A4B9EF"/>
<rect x="492.647" y="255.936" width="70.778" height="2.11754" rx="1.05877" fill="#A4B9EF"/>
<rect x="492.647" y="282.405" width="31.8501" height="2.11754" rx="1.05877" fill="#A4B9EF"/>
<path d="M495.17 293.496C495.17 293.397 495.25 293.317 495.349 293.317C495.448 293.317 495.528 293.397 495.528 293.496C495.528 296.053 497.598 298.131 500.145 298.131C500.656 298.131 501.145 298.049 501.602 297.895L501.076 296.346L503.701 297.002L502.389 299.627L501.79 298.21C501.275 298.391 500.723 298.49 500.145 298.49C497.4 298.49 495.17 296.251 495.17 293.496Z" fill="#FF5A4E"/>
<path d="M501.995 297.921C499.895 298.445 495.59 298.235 495.17 293.196" stroke="#FF5A4E" stroke-width="1.04995" stroke-linecap="round"/>
<path d="M498.32 289.521C500.385 288.872 504.95 288.715 505.67 293.721" stroke="#FF5A4E" stroke-width="1.04995" stroke-linecap="round"/>
<path d="M505.291 293.939C505.291 293.606 505.262 293.29 505.192 292.976L505.192 292.975C504.727 290.783 502.753 289.144 500.387 289.144C499.705 289.144 499.055 289.281 498.465 289.527L499.764 291.096H496.483L497.139 287.815L498.24 289.218C498.897 288.932 499.623 288.773 500.387 288.773C502.937 288.773 505.062 290.539 505.563 292.898L505.59 293.027C505.647 293.328 505.67 293.629 505.67 293.939C505.67 294.041 505.585 294.124 505.48 294.124C505.375 294.124 505.291 294.041 505.291 293.939Z" fill="#FF5A4E"/>
<path d="M40.4064 143.239C42.2877 143.239 43.8127 142.514 43.8127 141.62C43.8127 140.725 42.2877 140 40.4064 140C38.5251 140 37 140.725 37 141.62C37 142.514 38.5251 143.239 40.4064 143.239Z" stroke="#274580" stroke-width="0.6" stroke-miterlimit="10"/>
<path d="M43.8127 147.032C43.8127 147.927 42.2875 148.652 40.4064 148.652C38.5253 148.652 37 147.927 37 147.032" stroke="#274580" stroke-width="0.6" stroke-miterlimit="10"/>
<path d="M43.8127 145.143C43.8127 146.037 42.2875 146.762 40.4064 146.762C38.5253 146.762 37 146.037 37 145.143" stroke="#274580" stroke-width="0.6" stroke-miterlimit="10"/>
<path d="M43.8127 143.33C43.8127 144.224 42.2875 144.949 40.4064 144.949C38.5253 144.949 37 144.224 37 143.33" stroke="#274580" stroke-width="0.6" stroke-miterlimit="10"/>
<path d="M43.813 141.668V147.125" stroke="#274580" stroke-width="0.6" stroke-miterlimit="10" stroke-linecap="round"/>
<path d="M37.002 141.668V147.125" stroke="#274580" stroke-width="0.6" stroke-miterlimit="10" stroke-linecap="round"/>
<path d="M40.4064 162.6C42.2877 162.6 43.8127 161.875 43.8127 160.981C43.8127 160.086 42.2877 159.361 40.4064 159.361C38.5251 159.361 37 160.086 37 160.981C37 161.875 38.5251 162.6 40.4064 162.6Z" stroke="#274580" stroke-width="0.6" stroke-miterlimit="10"/>
<path d="M43.8127 166.394C43.8127 167.288 42.2875 168.013 40.4064 168.013C38.5253 168.013 37 167.288 37 166.394" stroke="#274580" stroke-width="0.6" stroke-miterlimit="10"/>
<path d="M43.8127 164.504C43.8127 165.399 42.2875 166.124 40.4064 166.124C38.5253 166.124 37 165.399 37 164.504" stroke="#274580" stroke-width="0.6" stroke-miterlimit="10"/>
<path d="M43.8127 162.691C43.8127 163.586 42.2875 164.311 40.4064 164.311C38.5253 164.311 37 163.586 37 162.691" stroke="#274580" stroke-width="0.6" stroke-miterlimit="10"/>
<path d="M43.813 161.029V166.486" stroke="#274580" stroke-width="0.6" stroke-miterlimit="10" stroke-linecap="round"/>
<path d="M37.002 161.029V166.486" stroke="#274580" stroke-width="0.6" stroke-miterlimit="10" stroke-linecap="round"/>
<path d="M40.4064 181.155C42.2877 181.155 43.8127 180.43 43.8127 179.536C43.8127 178.641 42.2877 177.916 40.4064 177.916C38.5251 177.916 37 178.641 37 179.536C37 180.43 38.5251 181.155 40.4064 181.155Z" stroke="#274580" stroke-width="0.6" stroke-miterlimit="10"/>
<path d="M43.8127 184.948C43.8127 185.842 42.2875 186.568 40.4064 186.568C38.5253 186.568 37 185.842 37 184.948" stroke="#274580" stroke-width="0.6" stroke-miterlimit="10"/>
<path d="M43.8127 183.059C43.8127 183.953 42.2875 184.678 40.4064 184.678C38.5253 184.678 37 183.953 37 183.059" stroke="#274580" stroke-width="0.6" stroke-miterlimit="10"/>
<path d="M43.8127 181.246C43.8127 182.14 42.2875 182.865 40.4064 182.865C38.5253 182.865 37 182.14 37 181.246" stroke="#274580" stroke-width="0.6" stroke-miterlimit="10"/>
<path d="M43.813 179.584V185.041" stroke="#274580" stroke-width="0.6" stroke-miterlimit="10" stroke-linecap="round"/>
<path d="M37.002 179.584V185.041" stroke="#274580" stroke-width="0.6" stroke-miterlimit="10" stroke-linecap="round"/>
<path d="M49 63L47 60" stroke="#F7F8FD" stroke-width="2" stroke-linecap="round" stroke-linejoin="round"/>
<rect x="175.007" y="38" width="393.976" height="21" rx="10.5" transform="rotate(0.0196712 175.007 38)" fill="#BEC2D8"/>
<rect width="90.968" height="3.00008" rx="1.50004" transform="matrix(0.999993 -0.00369945 -0.00095226 1 37.0029 42.3365)" fill="#758DE5"/>
<rect width="68.1507" height="3.00008" rx="1.50004" transform="matrix(0.999993 -0.00369945 -0.00095226 1 59.9346 53.3122)" fill="#758DE5"/>
<rect x="156" y="38" width="295" height="21" rx="10.5" fill="#FF5A4E"/>
<rect x="156" y="38" width="167" height="21" rx="10.5" fill="#4040D9"/>
<rect x="156.25" y="38.25" width="412.5" height="20.5" rx="10.25" stroke="#9CA2C6" stroke-width="0.5"/>
<circle cx="207.091" cy="192.007" r="5.90596" fill="#4040D9"/>
<path d="M204.406 192.186L206.42 194.334L209.775 190.038" stroke="white" stroke-width="1.07381" stroke-linecap="round"/>
<circle cx="305.524" cy="192.007" r="5.90596" fill="#4040D9"/>
<path d="M302.839 192.186L304.853 194.334L308.208 190.038" stroke="white" stroke-width="1.07381" stroke-linecap="round"/>
<circle cx="401.331" cy="192.007" r="5.90596" fill="#4040D9"/>
<path d="M398.647 192.186L400.66 194.334L404.016 190.038" stroke="white" stroke-width="1.07381" stroke-linecap="round"/>
</g>
<defs>
<clipPath id="clip0_18002_1217">
<rect width="631" height="476" fill="white"/>
</clipPath>
</defs>
</svg>
