<svg width="600" height="336" viewBox="0 0 600 336" fill="none" xmlns="http://www.w3.org/2000/svg">
<rect width="600" height="336" fill="#F7F8FD"/>
<path d="M17 18.4004H114.6V324.6H17C13.9072 324.6 11.4004 322.093 11.4004 319V24C11.4004 20.9072 13.9072 18.4004 17 18.4004Z" fill="#F7F8FD" stroke="#BEC1D9" stroke-width="0.8"/>
<path d="M581 18.4004C586.302 18.4004 590.6 22.6981 590.6 28V315C590.6 320.302 586.302 324.6 581 324.6H114.4V18.4004H581Z" stroke="#BEC1D9" stroke-width="0.8"/>
<path d="M134 31.25H573C575.623 31.25 577.75 33.3766 577.75 36V48.75H129.25V36C129.25 33.3766 131.377 31.25 134 31.25Z" fill="#C0C9EA" stroke="#9CA2C6" stroke-width="0.5"/>
<path d="M134 106.25H573C575.623 106.25 577.75 108.377 577.75 111V123.75H129.25V111C129.25 108.377 131.377 106.25 134 106.25Z" fill="#C0C9EA" stroke="#9CA2C6" stroke-width="0.5"/>
<path d="M134 183.25H573C575.623 183.25 577.75 185.377 577.75 188V200.75H129.25V188C129.25 185.377 131.377 183.25 134 183.25Z" fill="#C0C9EA" stroke="#9CA2C6" stroke-width="0.5"/>
<path d="M577.75 49.25V95C577.75 97.6234 575.623 99.75 573 99.75H134C131.377 99.75 129.25 97.6234 129.25 95V49.25H577.75Z" fill="#DAE0ED" stroke="#9CA2C6" stroke-width="0.5"/>
<path d="M577.75 124.25V170C577.75 172.623 575.623 174.75 573 174.75H134C131.377 174.75 129.25 172.623 129.25 170V124.25H577.75Z" fill="#DAE0ED" stroke="#9CA2C6" stroke-width="0.5"/>
<path d="M577.75 201.25V247C577.75 249.623 575.623 251.75 573 251.75H134C131.377 251.75 129.25 249.623 129.25 247V201.25H577.75Z" fill="#DAE0ED" stroke="#9CA2C6" stroke-width="0.5"/>
<rect x="21.25" y="35.25" width="83.5" height="28.5" rx="3.75" fill="#DAE0ED" stroke="#788FEC" stroke-width="0.5"/>
<rect x="21.25" y="228.25" width="83.5" height="28.5" rx="3.75" fill="#DAE0ED" stroke="#788FEC" stroke-width="0.5"/>
<rect x="21.25" y="273.25" width="83.5" height="28.5" rx="3.75" fill="#DAE0ED" stroke="#788FEC" stroke-width="0.5"/>
<rect x="40" y="92" width="61" height="2" rx="1" fill="#A4B9EF"/>
<rect x="28" y="45" width="31" height="2" rx="1" fill="#A4B9EF"/>
<rect x="28" y="241" width="31" height="2" rx="1" fill="#A4B9EF"/>
<rect x="28" y="286" width="31" height="2" rx="1" fill="#A4B9EF"/>
<rect x="28" y="52" width="23" height="2" rx="1" fill="#A4B9EF"/>
<rect x="68" y="43" width="27" height="12" rx="6" fill="#A4B9EF"/>
<rect x="68" y="236" width="27" height="12" rx="6" fill="#A4B9EF"/>
<rect x="68" y="281" width="27" height="12" rx="6" fill="#A4B9EF"/>
<rect x="40" y="181" width="61" height="2" rx="1" fill="#A4B9EF"/>
<rect x="40" y="201" width="61" height="2" rx="1" fill="#A4B9EF"/>
<rect x="47" y="117.227" width="54" height="2" rx="1" fill="#788FEC"/>
<rect x="47" y="137.227" width="54" height="2" rx="1" fill="#788FEC"/>
<rect x="47" y="155.227" width="54" height="2" rx="1" fill="#788FEC"/>
<rect x="149.652" y="133.5" width="61" height="31" rx="2.5" fill="#F7F8FD" stroke="#4040D9"/>
<path d="M153.152 141H208.152" stroke="#758DE5" stroke-width="0.5"/>
<rect x="153" y="144.857" width="25" height="1" rx="0.5" fill="#A4B9EF"/>
<rect x="153.152" y="136" width="55" height="2" rx="1" fill="#A4B9EF"/>
<rect x="149.652" y="208.5" width="61" height="31" rx="2.5" fill="#F7F8FD" stroke="#4040D9"/>
<path d="M153.152 216H208.152" stroke="#758DE5" stroke-width="0.5"/>
<rect x="153" y="219.857" width="25" height="1" rx="0.5" fill="#A4B9EF"/>
<rect x="153.152" y="211" width="55" height="2" rx="1" fill="#A4B9EF"/>
<rect x="302.5" y="133.5" width="61" height="31" rx="2.5" fill="#F7F8FD" stroke="#FF5A4E"/>
<path d="M306 141H361" stroke="#758DE5" stroke-width="0.5"/>
<rect x="305.848" y="144.857" width="25" height="1" rx="0.5" fill="#A4B9EF"/>
<rect x="306" y="136" width="55" height="2" rx="1" fill="#A4B9EF"/>
<path d="M311.709 161.07L310.956 161.712C310.735 161.889 310.425 161.911 310.182 161.778L309.23 161.225C308.987 161.07 308.854 160.783 308.921 160.495L309.142 159.632C309.23 159.278 309.186 158.902 309.009 158.592L308.124 157.021C307.947 156.734 307.682 156.49 307.372 156.38L306.443 156.048C306.177 155.959 306 155.694 306 155.406V154.3C306 154.012 306.221 153.746 306.509 153.68L307.372 153.437C307.726 153.348 308.013 153.105 308.213 152.795L309.142 151.246C309.319 150.959 309.385 150.605 309.319 150.273L309.142 149.299C309.098 149.011 309.23 148.746 309.474 148.613L310.425 148.082C310.691 147.949 311.001 147.972 311.222 148.193L311.775 148.724C312.085 149.034 312.505 149.211 312.948 149.211H314.629C314.961 149.233 315.293 149.122 315.559 148.901L316.311 148.259C316.532 148.082 316.842 148.06 317.085 148.193L318.037 148.746C318.28 148.901 318.413 149.188 318.347 149.476L318.125 150.339C318.037 150.693 318.081 151.069 318.258 151.379L319.143 152.95C319.32 153.238 319.586 153.481 319.895 153.592L320.825 153.924C321.09 154.012 321.267 154.278 321.267 154.565V155.671C321.267 155.959 321.046 156.225 320.758 156.291L319.895 156.534C319.541 156.623 319.254 156.866 319.055 157.176L318.125 158.725C317.948 159.013 317.882 159.367 317.948 159.698L318.125 160.672C318.17 160.96 318.037 161.225 317.793 161.358L316.842 161.889C316.576 162.022 316.267 162 316.045 161.778L315.404 161.159C315.138 160.893 314.806 160.761 314.43 160.761H312.638C312.306 160.738 311.974 160.849 311.709 161.07Z" fill="#FF5A4E"/>
<path d="M313.634 157.618C315.1 157.618 316.289 156.43 316.289 154.963C316.289 153.497 315.1 152.308 313.634 152.308C312.167 152.308 310.979 153.497 310.979 154.963C310.979 156.43 312.167 157.618 313.634 157.618Z" stroke="white" stroke-miterlimit="10"/>
<rect x="150.929" y="59.5" width="60.4863" height="31.1429" rx="2.5" fill="#F7F8FD" stroke="#4040D9"/>
<path d="M153.666 67.1934L208.68 67.1934" stroke="#758DE5" stroke-width="0.5"/>
<rect x="153.869" y="62.1511" width="55.0319" height="1.2605" rx="0.630252" fill="#A4B9EF"/>
<rect x="227.464" y="59.5" width="60.4863" height="31.1429" rx="2.5" fill="#F7F8FD" stroke="#4040D9"/>
<path d="M230.2 67.1934L285.214 67.1934" stroke="#758DE5" stroke-width="0.5"/>
<rect x="230.403" y="62.1511" width="55.0319" height="1.2605" rx="0.630252" fill="#A4B9EF"/>
<rect x="301.957" y="59.5" width="60.4863" height="31.1429" rx="2.5" fill="#F7F8FD" stroke="#4040D9"/>
<path d="M304.693 67.1934L359.707 67.1934" stroke="#758DE5" stroke-width="0.5"/>
<rect x="304.896" y="62.1511" width="55.0319" height="1.2605" rx="0.630252" fill="#A4B9EF"/>
<path d="M211.642 75.9678L211.142 75.9657L211.137 76.9657L211.637 76.9678L211.64 76.4678L211.642 75.9678ZM226.98 76.5322L221.993 73.6245L221.968 79.3979L226.98 76.5322ZM211.64 76.4678L211.637 76.9678L222.478 77.0133L222.48 76.5133L222.483 76.0133L211.642 75.9678L211.64 76.4678Z" fill="#4040D9"/>
<path d="M211.642 149.968L211.142 149.966L211.137 150.966L211.637 150.968L211.64 150.468L211.642 149.968ZM226.98 150.532L221.993 147.624L221.968 153.398L226.98 150.532ZM211.64 150.468L211.637 150.968L222.478 151.013L222.48 150.513L222.483 150.013L211.642 149.968L211.64 150.468Z" fill="#4040D9"/>
<path d="M211.642 224.968L211.142 224.966L211.137 225.966L211.637 225.968L211.64 225.468L211.642 224.968ZM226.98 225.532L221.993 222.624L221.968 228.398L226.98 225.532ZM211.64 225.468L211.637 225.968L222.478 226.013L222.48 225.513L222.483 225.013L211.642 224.968L211.64 225.468Z" fill="#4040D9"/>
<path d="M288 75.5L287.5 75.5L287.5 76.5L288 76.5L288 76L288 75.5ZM302 76L297 73.1132L297 78.8868L302 76ZM288 76L288 76.5L297.5 76.5L297.5 76L297.5 75.5L288 75.5L288 76Z" fill="#4040D9"/>
<path d="M289 149.5L288.5 149.5L288.5 150.5L289 150.5L289 150L289 149.5ZM302 150L297 147.113L297 152.887L302 150ZM289 150L289 150.5L297.5 150.5L297.5 150L297.5 149.5L289 149.5L289 150Z" fill="#4040D9"/>
<g clip-path="url(#clip0_18022_1765)">
<path d="M32.2381 89.9051H32.5232C32.7318 89.9051 32.9006 90.0841 32.9006 90.3072C32.9006 90.3285 32.8992 90.3512 32.8963 90.3725L32.2948 95.4984C32.2806 95.6221 32.2154 95.7243 32.1246 95.7883C32.0565 95.8579 31.9643 95.9005 31.8621 95.9005H24.1391C24.0369 95.9005 23.9447 95.8579 23.878 95.7883C23.7816 95.7243 23.7149 95.6121 23.7035 95.4857L23.1035 90.3541C23.0779 90.1353 23.2255 89.935 23.4312 89.908L23.478 89.9051H23.7631V88.5029C23.7631 88.2813 23.9319 88.1008 24.1405 88.1008H26.9622C27.0799 88.1008 27.1849 88.1577 27.253 88.2457L28.9851 89.7901" stroke="#274580" stroke-width="0.493896" stroke-linecap="round" stroke-linejoin="round"/>
<path d="M23.7546 89.9065H32.2296" stroke="#274580" stroke-width="0.493896" stroke-linecap="round" stroke-linejoin="round"/>
<path d="M25.0781 89.01H26.1918" stroke="#274580" stroke-width="0.493896" stroke-linecap="round" stroke-linejoin="round"/>
</g>
<g clip-path="url(#clip1_18022_1765)">
<path d="M32.2381 178.905H32.5232C32.7318 178.905 32.9006 179.084 32.9006 179.307C32.9006 179.328 32.8992 179.351 32.8963 179.373L32.2948 184.498C32.2806 184.622 32.2154 184.724 32.1246 184.788C32.0565 184.858 31.9643 184.901 31.8621 184.901H24.1391C24.0369 184.901 23.9447 184.858 23.878 184.788C23.7816 184.724 23.7149 184.612 23.7035 184.486L23.1035 179.354C23.0779 179.135 23.2255 178.935 23.4312 178.908L23.478 178.905H23.7631V177.503C23.7631 177.281 23.9319 177.101 24.1405 177.101H26.9622C27.0799 177.101 27.1849 177.158 27.253 177.246L28.9851 178.79" stroke="#274580" stroke-width="0.493896" stroke-linecap="round" stroke-linejoin="round"/>
<path d="M23.7546 178.906H32.2296" stroke="#274580" stroke-width="0.493896" stroke-linecap="round" stroke-linejoin="round"/>
<path d="M25.0781 178.01H26.1918" stroke="#274580" stroke-width="0.493896" stroke-linecap="round" stroke-linejoin="round"/>
</g>
<g clip-path="url(#clip2_18022_1765)">
<path d="M32.2381 198.905H32.5232C32.7318 198.905 32.9006 199.084 32.9006 199.307C32.9006 199.328 32.8992 199.351 32.8963 199.373L32.2948 204.498C32.2806 204.622 32.2154 204.724 32.1246 204.788C32.0565 204.858 31.9643 204.901 31.8621 204.901H24.1391C24.0369 204.901 23.9447 204.858 23.878 204.788C23.7816 204.724 23.7149 204.612 23.7035 204.486L23.1035 199.354C23.0779 199.135 23.2255 198.935 23.4312 198.908L23.478 198.905H23.7631V197.503C23.7631 197.281 23.9319 197.101 24.1405 197.101H26.9622C27.0799 197.101 27.1849 197.158 27.253 197.246L28.9851 198.79" stroke="#274580" stroke-width="0.493896" stroke-linecap="round" stroke-linejoin="round"/>
<path d="M23.7546 198.906H32.2296" stroke="#274580" stroke-width="0.493896" stroke-linecap="round" stroke-linejoin="round"/>
<path d="M25.0781 198.01H26.1918" stroke="#274580" stroke-width="0.493896" stroke-linecap="round" stroke-linejoin="round"/>
</g>
<path d="M36.4064 117.239C38.2877 117.239 39.8127 116.514 39.8127 115.62C39.8127 114.725 38.2877 114 36.4064 114C34.5251 114 33 114.725 33 115.62C33 116.514 34.5251 117.239 36.4064 117.239Z" stroke="#274580" stroke-width="0.6" stroke-miterlimit="10"/>
<path d="M39.8127 121.032C39.8127 121.927 38.2875 122.652 36.4064 122.652C34.5253 122.652 33 121.927 33 121.032" stroke="#274580" stroke-width="0.6" stroke-miterlimit="10"/>
<path d="M39.8127 119.143C39.8127 120.037 38.2875 120.762 36.4064 120.762C34.5253 120.762 33 120.037 33 119.143" stroke="#274580" stroke-width="0.6" stroke-miterlimit="10"/>
<path d="M39.8127 117.33C39.8127 118.224 38.2875 118.949 36.4064 118.949C34.5253 118.949 33 118.224 33 117.33" stroke="#274580" stroke-width="0.6" stroke-miterlimit="10"/>
<path d="M39.813 115.668V121.125" stroke="#274580" stroke-width="0.6" stroke-miterlimit="10" stroke-linecap="round"/>
<path d="M33.002 115.668V121.125" stroke="#274580" stroke-width="0.6" stroke-miterlimit="10" stroke-linecap="round"/>
<path d="M36.4064 136.6C38.2877 136.6 39.8127 135.875 39.8127 134.981C39.8127 134.086 38.2877 133.361 36.4064 133.361C34.5251 133.361 33 134.086 33 134.981C33 135.875 34.5251 136.6 36.4064 136.6Z" stroke="#274580" stroke-width="0.6" stroke-miterlimit="10"/>
<path d="M39.8127 140.394C39.8127 141.288 38.2875 142.013 36.4064 142.013C34.5253 142.013 33 141.288 33 140.394" stroke="#274580" stroke-width="0.6" stroke-miterlimit="10"/>
<path d="M39.8127 138.504C39.8127 139.399 38.2875 140.124 36.4064 140.124C34.5253 140.124 33 139.399 33 138.504" stroke="#274580" stroke-width="0.6" stroke-miterlimit="10"/>
<path d="M39.8127 136.691C39.8127 137.586 38.2875 138.311 36.4064 138.311C34.5253 138.311 33 137.586 33 136.691" stroke="#274580" stroke-width="0.6" stroke-miterlimit="10"/>
<path d="M39.813 135.029V140.486" stroke="#274580" stroke-width="0.6" stroke-miterlimit="10" stroke-linecap="round"/>
<path d="M33.002 135.029V140.486" stroke="#274580" stroke-width="0.6" stroke-miterlimit="10" stroke-linecap="round"/>
<path d="M36.4064 155.155C38.2877 155.155 39.8127 154.43 39.8127 153.536C39.8127 152.641 38.2877 151.916 36.4064 151.916C34.5251 151.916 33 152.641 33 153.536C33 154.43 34.5251 155.155 36.4064 155.155Z" stroke="#274580" stroke-width="0.6" stroke-miterlimit="10"/>
<path d="M39.8127 158.948C39.8127 159.843 38.2875 160.568 36.4064 160.568C34.5253 160.568 33 159.843 33 158.948" stroke="#274580" stroke-width="0.6" stroke-miterlimit="10"/>
<path d="M39.8127 157.059C39.8127 157.953 38.2875 158.678 36.4064 158.678C34.5253 158.678 33 157.953 33 157.059" stroke="#274580" stroke-width="0.6" stroke-miterlimit="10"/>
<path d="M39.8127 155.246C39.8127 156.14 38.2875 156.865 36.4064 156.865C34.5253 156.865 33 156.14 33 155.246" stroke="#274580" stroke-width="0.6" stroke-miterlimit="10"/>
<path d="M39.813 153.584V159.041" stroke="#274580" stroke-width="0.6" stroke-miterlimit="10" stroke-linecap="round"/>
<path d="M33.002 153.584V159.041" stroke="#274580" stroke-width="0.6" stroke-miterlimit="10" stroke-linecap="round"/>
<ellipse cx="311.741" cy="80.6058" rx="6.74091" ry="6.60579" fill="#4040D9"/>
<path d="M308.677 80.8059L310.975 83.208L314.805 78.4038" stroke="white" stroke-width="1.20105" stroke-linecap="round"/>
<ellipse cx="236.741" cy="80.6058" rx="6.74091" ry="6.60579" fill="#4040D9"/>
<path d="M233.677 80.8059L235.975 83.208L239.805 78.4038" stroke="white" stroke-width="1.20105" stroke-linecap="round"/>
<ellipse cx="160.741" cy="80.6058" rx="6.74091" ry="6.60579" fill="#4040D9"/>
<path d="M157.677 80.8059L159.975 83.208L163.805 78.4038" stroke="white" stroke-width="1.20105" stroke-linecap="round"/>
<ellipse cx="160.741" cy="154.606" rx="6.74091" ry="6.60579" fill="#4040D9"/>
<path d="M157.677 154.806L159.975 157.208L163.805 152.404" stroke="white" stroke-width="1.20105" stroke-linecap="round"/>
<ellipse cx="160.741" cy="229.606" rx="6.74091" ry="6.60579" fill="#4040D9"/>
<path d="M157.677 229.806L159.975 232.208L163.805 227.404" stroke="white" stroke-width="1.20105" stroke-linecap="round"/>
<path d="M140.728 42.214H142.03C142.03 43.054 142.884 43.922 144.102 43.922C145.334 43.922 145.936 43.236 146.048 42.508C146.118 41.472 145.278 40.982 144.41 40.786L143.164 40.478C141.106 39.96 140.812 38.798 140.812 37.958C140.812 36.334 142.296 35.242 143.934 35.242C145.684 35.242 147.042 36.334 147.042 38.07H145.74C145.74 37.104 144.984 36.488 143.92 36.488C142.968 36.488 142.114 37.062 142.114 37.944C142.114 38.364 142.268 38.994 143.486 39.288L144.746 39.596C146.552 40.058 147.532 41.066 147.322 42.62C147.14 44.02 146.006 45.14 144.102 45.14C142.142 45.14 140.728 43.726 140.728 42.214ZM150.869 41.374H154.061L152.465 37.09L150.869 41.374ZM154.509 42.55H150.421L149.483 45H148.097L151.765 35.354H153.165L156.819 45H155.447L154.509 42.55ZM158.283 35.354H162.133C164.177 35.354 165.003 36.866 165.003 38.378C165.003 39.89 164.177 41.388 162.133 41.388H159.599V45H158.283V35.354ZM162.119 36.572H159.599V40.17H162.049C163.225 40.17 163.701 39.274 163.701 38.378C163.701 37.496 163.239 36.572 162.119 36.572Z" fill="#2F3B45"/>
<path d="M146.538 117.438L149.94 110.354H151.13L152.306 120H151.018L150.136 112.748L147.126 118.936H145.978L142.94 112.748L142.058 120H140.77L141.946 110.354H143.136L146.538 117.438ZM159.232 120V118.992C158.798 119.72 157.846 120.14 156.936 120.14C155.144 120.14 153.618 118.796 153.618 116.724C153.618 114.638 155.144 113.322 156.936 113.322C157.846 113.322 158.784 113.7 159.232 114.442V113.462H160.492V120H159.232ZM159.218 116.71C159.218 115.31 158.112 114.568 157.048 114.568C155.872 114.568 154.92 115.422 154.92 116.71C154.92 117.998 155.872 118.894 157.048 118.894C158.21 118.894 159.218 118.096 159.218 116.71ZM163.885 113.462V120H162.625V113.462H163.885ZM162.373 111.054C162.373 110.564 162.765 110.228 163.255 110.228C163.745 110.228 164.137 110.564 164.137 111.054C164.137 111.544 163.745 111.88 163.255 111.88C162.765 111.88 162.373 111.544 162.373 111.054ZM167.289 116.472V120H166.015V113.462H167.289V114.442C167.667 113.658 168.619 113.322 169.333 113.322C170.971 113.322 171.853 114.372 171.853 116.22V120H170.579V116.304C170.579 115.198 170.033 114.568 169.137 114.568C168.213 114.568 167.289 115.086 167.289 116.472ZM177.698 109.906V111.124H176.984C175.92 111.124 175.766 111.964 175.766 112.804V113.462H177.278V114.54H175.766V120H174.478V114.54H173.218V113.462H174.478V112.804C174.478 111.082 175.22 109.906 176.984 109.906H177.698ZM179.977 117.62V120H178.703V113.462H179.977V114.932C180.313 113.77 180.943 113.322 181.797 113.322C182.259 113.322 182.749 113.448 182.931 113.574L182.735 114.764C182.385 114.596 182.035 114.54 181.769 114.54C180.509 114.54 179.977 115.884 179.977 117.62ZM189.242 120V118.992C188.808 119.72 187.856 120.14 186.946 120.14C185.154 120.14 183.628 118.796 183.628 116.724C183.628 114.638 185.154 113.322 186.946 113.322C187.856 113.322 188.794 113.7 189.242 114.442V113.462H190.502V120H189.242ZM189.228 116.71C189.228 115.31 188.122 114.568 187.058 114.568C185.882 114.568 184.93 115.422 184.93 116.71C184.93 117.998 185.882 118.894 187.058 118.894C188.22 118.894 189.228 118.096 189.228 116.71ZM200.152 114.568C199.074 114.568 198.416 115.38 198.416 116.472V120H197.142V116.29C197.142 115.212 196.582 114.568 195.728 114.568C194.818 114.568 193.908 115.1 193.908 116.472V120H192.634V113.462H193.908V114.442C194.244 113.714 195.182 113.392 195.714 113.35C195.966 113.336 196.204 113.35 196.428 113.392C197.254 113.518 197.828 113.952 198.136 114.666C198.738 113.504 199.774 113.322 200.404 113.322C202.042 113.322 202.924 114.372 202.924 116.22V120H201.65V116.304C201.65 115.226 201.104 114.568 200.152 114.568ZM205.806 116.22H209.866C209.712 115.114 208.942 114.47 207.878 114.47C206.8 114.47 205.96 115.114 205.806 116.22ZM211.126 116.71C211.126 116.864 211.126 117.06 211.112 117.214H205.806C205.96 118.32 206.8 118.992 207.92 118.992C208.704 118.992 209.418 118.642 209.796 117.984C210.132 118.138 210.538 118.25 210.888 118.404C210.328 119.566 209.152 120.14 207.878 120.14C206.016 120.14 204.532 118.782 204.532 116.71C204.532 114.638 206.016 113.322 207.878 113.322C209.74 113.322 211.126 114.638 211.126 116.71Z" fill="#2F3B45"/>
<path d="M142.926 193.374H146.118L144.522 189.09L142.926 193.374ZM146.566 194.55H142.478L141.54 197H140.154L143.822 187.354H145.222L148.876 197H147.504L146.566 194.55ZM159.549 187.354H160.949L157.687 197H156.553L154.845 190.98L153.151 197H152.017L148.755 187.354H150.155L152.577 194.9L154.355 188.656H155.349L157.127 194.9L159.549 187.354ZM161.81 194.214H163.112C163.112 195.054 163.966 195.922 165.184 195.922C166.416 195.922 167.018 195.236 167.13 194.508C167.2 193.472 166.36 192.982 165.492 192.786L164.246 192.478C162.188 191.96 161.894 190.798 161.894 189.958C161.894 188.334 163.378 187.242 165.016 187.242C166.766 187.242 168.124 188.334 168.124 190.07H166.822C166.822 189.104 166.066 188.488 165.002 188.488C164.05 188.488 163.196 189.062 163.196 189.944C163.196 190.364 163.35 190.994 164.568 191.288L165.828 191.596C167.634 192.058 168.614 193.066 168.404 194.62C168.222 196.02 167.088 197.14 165.184 197.14C163.224 197.14 161.81 195.726 161.81 194.214Z" fill="#2F3B45"/>
<rect x="227.5" y="133.5" width="61" height="31" rx="2.5" fill="#F7F8FD" stroke="#FF5A4E"/>
<path d="M231 141H286" stroke="#758DE5" stroke-width="0.5"/>
<rect x="230.848" y="144.857" width="25" height="1" rx="0.5" fill="#A4B9EF"/>
<rect x="231" y="136" width="55" height="2" rx="1" fill="#A4B9EF"/>
<path d="M236.709 161.07L235.956 161.712C235.735 161.889 235.425 161.911 235.182 161.778L234.23 161.225C233.987 161.07 233.854 160.783 233.921 160.495L234.142 159.632C234.23 159.278 234.186 158.902 234.009 158.592L233.124 157.021C232.947 156.734 232.682 156.49 232.372 156.38L231.443 156.048C231.177 155.959 231 155.694 231 155.406V154.3C231 154.012 231.221 153.746 231.509 153.68L232.372 153.437C232.726 153.348 233.013 153.105 233.213 152.795L234.142 151.246C234.319 150.959 234.385 150.605 234.319 150.273L234.142 149.299C234.098 149.011 234.23 148.746 234.474 148.613L235.425 148.082C235.691 147.949 236.001 147.972 236.222 148.193L236.775 148.724C237.085 149.034 237.505 149.211 237.948 149.211H239.629C239.961 149.233 240.293 149.122 240.559 148.901L241.311 148.259C241.532 148.082 241.842 148.06 242.085 148.193L243.037 148.746C243.28 148.901 243.413 149.188 243.347 149.476L243.125 150.339C243.037 150.693 243.081 151.069 243.258 151.379L244.143 152.95C244.32 153.238 244.586 153.481 244.895 153.592L245.825 153.924C246.09 154.012 246.267 154.278 246.267 154.565V155.671C246.267 155.959 246.046 156.225 245.758 156.291L244.895 156.534C244.541 156.623 244.254 156.866 244.055 157.176L243.125 158.725C242.948 159.013 242.882 159.367 242.948 159.698L243.125 160.672C243.17 160.96 243.037 161.225 242.793 161.358L241.842 161.889C241.576 162.022 241.267 162 241.045 161.778L240.404 161.159C240.138 160.893 239.806 160.761 239.43 160.761H237.638C237.306 160.738 236.974 160.849 236.709 161.07Z" fill="#FF5A4E"/>
<path d="M238.634 157.618C240.1 157.618 241.289 156.43 241.289 154.963C241.289 153.497 240.1 152.308 238.634 152.308C237.167 152.308 235.979 153.497 235.979 154.963C235.979 156.43 237.167 157.618 238.634 157.618Z" stroke="white" stroke-miterlimit="10"/>
<rect x="227.5" y="208.5" width="61" height="31" rx="2.5" fill="#F7F8FD" stroke="#FF5A4E"/>
<path d="M231 216H286" stroke="#758DE5" stroke-width="0.5"/>
<rect x="230.848" y="219.857" width="25" height="1" rx="0.5" fill="#A4B9EF"/>
<rect x="231" y="211" width="55" height="2" rx="1" fill="#A4B9EF"/>
<path d="M236.709 236.07L235.956 236.712C235.735 236.889 235.425 236.911 235.182 236.778L234.23 236.225C233.987 236.07 233.854 235.783 233.921 235.495L234.142 234.632C234.23 234.278 234.186 233.902 234.009 233.592L233.124 232.021C232.947 231.734 232.682 231.49 232.372 231.38L231.443 231.048C231.177 230.959 231 230.694 231 230.406V229.3C231 229.012 231.221 228.746 231.509 228.68L232.372 228.437C232.726 228.348 233.013 228.105 233.213 227.795L234.142 226.246C234.319 225.959 234.385 225.605 234.319 225.273L234.142 224.299C234.098 224.011 234.23 223.746 234.474 223.613L235.425 223.082C235.691 222.949 236.001 222.972 236.222 223.193L236.775 223.724C237.085 224.034 237.505 224.211 237.948 224.211H239.629C239.961 224.233 240.293 224.122 240.559 223.901L241.311 223.259C241.532 223.082 241.842 223.06 242.085 223.193L243.037 223.746C243.28 223.901 243.413 224.188 243.347 224.476L243.125 225.339C243.037 225.693 243.081 226.069 243.258 226.379L244.143 227.95C244.32 228.238 244.586 228.481 244.895 228.592L245.825 228.924C246.09 229.012 246.267 229.278 246.267 229.565V230.671C246.267 230.959 246.046 231.225 245.758 231.291L244.895 231.534C244.541 231.623 244.254 231.866 244.055 232.176L243.125 233.725C242.948 234.013 242.882 234.367 242.948 234.698L243.125 235.672C243.17 235.96 243.037 236.225 242.793 236.358L241.842 236.889C241.576 237.022 241.267 237 241.045 236.778L240.404 236.159C240.138 235.893 239.806 235.761 239.43 235.761H237.638C237.306 235.738 236.974 235.849 236.709 236.07Z" fill="#FF5A4E"/>
<path d="M238.634 232.618C240.1 232.618 241.289 231.43 241.289 229.963C241.289 228.497 240.1 227.308 238.634 227.308C237.167 227.308 235.979 228.497 235.979 229.963C235.979 231.43 237.167 232.618 238.634 232.618Z" stroke="white" stroke-miterlimit="10"/>
<rect x="129.25" y="262.25" width="140.5" height="52.5" rx="2.75" stroke="#9CA2C6" stroke-width="0.5"/>
<rect x="283.25" y="262.25" width="140.5" height="52.5" rx="2.75" stroke="#9CA2C6" stroke-width="0.5"/>
<rect x="437.25" y="262.25" width="140.5" height="52.5" rx="2.75" stroke="#9CA2C6" stroke-width="0.5"/>
<path d="M158.6 282.36L158.726 281.128C158.936 281.198 159.538 281.24 159.65 281.24C160.868 281.24 161.316 280.386 161.316 279.378V269.354H162.618V279.378C162.618 281.072 161.82 282.514 159.65 282.514C159.384 282.514 158.936 282.43 158.6 282.36ZM167.847 279.14C165.985 279.14 164.431 277.782 164.431 275.71C164.431 273.638 165.985 272.322 167.847 272.322C169.709 272.322 171.277 273.638 171.277 275.71C171.277 277.782 169.709 279.14 167.847 279.14ZM167.847 277.908C169.009 277.908 170.003 277.054 170.003 275.71C170.003 274.394 169.009 273.568 167.847 273.568C166.657 273.568 165.691 274.394 165.691 275.71C165.691 277.054 166.657 277.908 167.847 277.908ZM174.246 277.992V279H172.972V268.906H174.246V273.442C174.68 272.7 175.59 272.322 176.542 272.322C178.348 272.322 179.846 273.638 179.846 275.724C179.846 277.796 178.32 279.14 176.528 279.14C175.618 279.14 174.68 278.72 174.246 277.992ZM174.26 275.71C174.26 277.096 175.268 277.894 176.43 277.894C177.606 277.894 178.544 276.998 178.544 275.71C178.544 274.422 177.606 273.568 176.43 273.568C175.366 273.568 174.26 274.31 174.26 275.71ZM189.479 275.346L192.055 279H190.473L187.981 275.388H186.749V279H185.433V269.354H189.143C191.173 269.354 191.999 270.866 191.999 272.378C191.999 273.806 191.285 275.192 189.479 275.346ZM189.101 270.572H186.749V274.17H189.045C190.221 274.17 190.655 273.274 190.655 272.378C190.655 271.496 190.221 270.572 189.101 270.572ZM194.388 275.22H198.448C198.294 274.114 197.524 273.47 196.46 273.47C195.382 273.47 194.542 274.114 194.388 275.22ZM199.708 275.71C199.708 275.864 199.708 276.06 199.694 276.214H194.388C194.542 277.32 195.382 277.992 196.502 277.992C197.286 277.992 198 277.642 198.378 276.984C198.714 277.138 199.12 277.25 199.47 277.404C198.91 278.566 197.734 279.14 196.46 279.14C194.598 279.14 193.114 277.782 193.114 275.71C193.114 273.638 194.598 272.322 196.46 272.322C198.322 272.322 199.708 273.638 199.708 275.71ZM206.494 279V277.992C206.06 278.72 205.108 279.14 204.198 279.14C202.406 279.14 200.894 277.796 200.894 275.724C200.894 273.638 202.392 272.322 204.184 272.322C205.15 272.322 206.06 272.7 206.494 273.442V268.906H207.768V279H206.494ZM206.48 275.71C206.48 274.31 205.374 273.568 204.31 273.568C203.134 273.568 202.196 274.422 202.196 275.71C202.196 276.998 203.134 277.894 204.31 277.894C205.472 277.894 206.48 277.096 206.48 275.71ZM214.366 275.99V272.462H215.64V279H214.366V278.02C213.96 278.804 213.05 279.14 212.336 279.14C210.698 279.14 209.802 278.09 209.816 276.242V272.462H211.09V276.158C211.09 277.264 211.622 277.894 212.518 277.894C213.442 277.894 214.366 277.39 214.366 275.99ZM217.327 275.71C217.327 273.638 218.923 272.322 220.785 272.322C221.793 272.322 222.689 272.7 223.305 273.372L222.339 274.184C221.947 273.792 221.387 273.568 220.785 273.568C219.609 273.568 218.587 274.394 218.587 275.71C218.587 277.012 219.609 277.908 220.785 277.908C221.387 277.908 221.947 277.67 222.339 277.264L223.319 278.076C222.703 278.748 221.793 279.14 220.785 279.14C218.923 279.14 217.327 277.782 217.327 275.71ZM226.689 272.462H228.075V273.54H226.689V279H225.415V273.54H224.239V272.462H225.415V269.998H226.689V272.462ZM230.779 272.462V279H229.519V272.462H230.779ZM229.267 270.054C229.267 269.564 229.659 269.228 230.149 269.228C230.639 269.228 231.031 269.564 231.031 270.054C231.031 270.544 230.639 270.88 230.149 270.88C229.659 270.88 229.267 270.544 229.267 270.054ZM235.892 279.14C234.03 279.14 232.476 277.782 232.476 275.71C232.476 273.638 234.03 272.322 235.892 272.322C237.754 272.322 239.322 273.638 239.322 275.71C239.322 277.782 237.754 279.14 235.892 279.14ZM235.892 277.908C237.054 277.908 238.048 277.054 238.048 275.71C238.048 274.394 237.054 273.568 235.892 273.568C234.702 273.568 233.736 274.394 233.736 275.71C233.736 277.054 234.702 277.908 235.892 277.908ZM242.291 275.472V279H241.017V272.462H242.291V273.442C242.669 272.658 243.621 272.322 244.335 272.322C245.973 272.322 246.855 273.372 246.855 275.22V279H245.581V275.304C245.581 274.198 245.035 273.568 244.139 273.568C243.215 273.568 242.291 274.086 242.291 275.472Z" fill="#2F3B45"/>
<path d="M186.926 296.108C186.926 294.452 188.258 293.102 190.058 293.102C191.858 293.102 193.226 294.452 193.226 296.108C193.226 296.954 192.866 297.674 192.308 298.178C193.442 298.88 194.108 300.014 194.108 301.328C194.108 303.47 192.344 305.162 190.058 305.162C187.754 305.162 186.008 303.47 186.008 301.328C186.008 300.014 186.71 298.844 187.79 298.178C187.268 297.674 186.926 296.954 186.926 296.108ZM187.628 301.328C187.628 302.57 188.69 303.56 190.058 303.56C191.426 303.56 192.488 302.57 192.488 301.328C192.488 300.104 191.426 299.06 190.058 299.06H189.932C188.618 299.114 187.628 300.122 187.628 301.328ZM188.528 296.108C188.528 296.882 189.122 297.494 189.968 297.548H190.112C190.976 297.494 191.606 296.882 191.606 296.108C191.606 295.334 190.94 294.722 190.058 294.722C189.194 294.722 188.528 295.334 188.528 296.108ZM196.295 299.15C196.295 295.802 197.177 293.102 200.561 293.102C203.945 293.102 204.809 295.802 204.809 299.15C204.809 302.462 203.945 305.162 200.561 305.162C197.177 305.162 196.295 302.462 196.295 299.15ZM197.915 299.15C197.915 301.58 198.455 303.56 200.561 303.56C202.667 303.56 203.207 301.58 203.207 299.15C203.207 296.702 202.667 294.722 200.561 294.722C198.455 294.722 197.915 296.702 197.915 299.15ZM215.582 292.886L209.66 305H208.472L214.394 292.886H215.582ZM206.69 295.298C206.69 293.948 207.716 292.886 209.084 292.886C210.434 292.886 211.496 293.948 211.496 295.298C211.496 296.666 210.434 297.692 209.084 297.692C207.716 297.692 206.69 296.666 206.69 295.298ZM207.95 295.298C207.95 295.946 208.436 296.432 209.084 296.432C209.714 296.432 210.236 295.946 210.236 295.298C210.236 294.668 209.714 294.146 209.084 294.146C208.436 294.146 207.95 294.668 207.95 295.298ZM212.81 302.786C212.81 301.436 213.836 300.374 215.204 300.374C216.554 300.374 217.616 301.436 217.616 302.786C217.616 304.154 216.554 305.18 215.204 305.18C213.836 305.18 212.81 304.154 212.81 302.786ZM214.07 302.786C214.07 303.434 214.556 303.92 215.204 303.92C215.834 303.92 216.356 303.434 216.356 302.786C216.356 302.156 215.834 301.634 215.204 301.634C214.556 301.634 214.07 302.156 214.07 302.786Z" fill="#4040D9"/>
<path d="M301.728 276.214H303.03C303.03 277.054 303.884 277.922 305.102 277.922C306.334 277.922 306.936 277.236 307.048 276.508C307.118 275.472 306.278 274.982 305.41 274.786L304.164 274.478C302.106 273.96 301.812 272.798 301.812 271.958C301.812 270.334 303.296 269.242 304.934 269.242C306.684 269.242 308.042 270.334 308.042 272.07H306.74C306.74 271.104 305.984 270.488 304.92 270.488C303.968 270.488 303.114 271.062 303.114 271.944C303.114 272.364 303.268 272.994 304.486 273.288L305.746 273.596C307.552 274.058 308.532 275.066 308.322 276.62C308.14 278.02 307.006 279.14 305.102 279.14C303.142 279.14 301.728 277.726 301.728 276.214ZM310.929 275.22H314.989C314.835 274.114 314.065 273.47 313.001 273.47C311.923 273.47 311.083 274.114 310.929 275.22ZM316.249 275.71C316.249 275.864 316.249 276.06 316.235 276.214H310.929C311.083 277.32 311.923 277.992 313.043 277.992C313.827 277.992 314.541 277.642 314.919 276.984C315.255 277.138 315.661 277.25 316.011 277.404C315.451 278.566 314.275 279.14 313.001 279.14C311.139 279.14 309.655 277.782 309.655 275.71C309.655 273.638 311.139 272.322 313.001 272.322C314.863 272.322 316.249 273.638 316.249 275.71ZM319.143 276.62V279H317.869V272.462H319.143V273.932C319.479 272.77 320.109 272.322 320.963 272.322C321.425 272.322 321.915 272.448 322.097 272.574L321.901 273.764C321.551 273.596 321.201 273.54 320.935 273.54C319.675 273.54 319.143 274.884 319.143 276.62ZM322.566 272.462H323.91L325.898 277.376L327.872 272.462H329.23L326.5 279H326.514H325.282L322.566 272.462ZM331.789 272.462V279H330.529V272.462H331.789ZM330.277 270.054C330.277 269.564 330.669 269.228 331.159 269.228C331.649 269.228 332.041 269.564 332.041 270.054C332.041 270.544 331.649 270.88 331.159 270.88C330.669 270.88 330.277 270.544 330.277 270.054ZM333.485 275.71C333.485 273.638 335.081 272.322 336.943 272.322C337.951 272.322 338.847 272.7 339.463 273.372L338.497 274.184C338.105 273.792 337.545 273.568 336.943 273.568C335.767 273.568 334.745 274.394 334.745 275.71C334.745 277.012 335.767 277.908 336.943 277.908C337.545 277.908 338.105 277.67 338.497 277.264L339.477 278.076C338.861 278.748 337.951 279.14 336.943 279.14C335.081 279.14 333.485 277.782 333.485 275.71ZM341.759 275.22H345.819C345.665 274.114 344.895 273.47 343.831 273.47C342.753 273.47 341.913 274.114 341.759 275.22ZM347.079 275.71C347.079 275.864 347.079 276.06 347.065 276.214H341.759C341.913 277.32 342.753 277.992 343.873 277.992C344.657 277.992 345.371 277.642 345.749 276.984C346.085 277.138 346.491 277.25 346.841 277.404C346.281 278.566 345.105 279.14 343.831 279.14C341.969 279.14 340.485 277.782 340.485 275.71C340.485 273.638 341.969 272.322 343.831 272.322C345.693 272.322 347.079 273.638 347.079 275.71ZM356.633 275.346L359.209 279H357.627L355.135 275.388H353.903V279H352.587V269.354H356.297C358.327 269.354 359.153 270.866 359.153 272.378C359.153 273.806 358.439 275.192 356.633 275.346ZM356.255 270.572H353.903V274.17H356.199C357.375 274.17 357.809 273.274 357.809 272.378C357.809 271.496 357.375 270.572 356.255 270.572ZM361.543 275.22H365.603C365.449 274.114 364.679 273.47 363.615 273.47C362.537 273.47 361.697 274.114 361.543 275.22ZM366.863 275.71C366.863 275.864 366.863 276.06 366.849 276.214H361.543C361.697 277.32 362.537 277.992 363.657 277.992C364.441 277.992 365.155 277.642 365.533 276.984C365.869 277.138 366.275 277.25 366.625 277.404C366.065 278.566 364.889 279.14 363.615 279.14C361.753 279.14 360.269 277.782 360.269 275.71C360.269 273.638 361.753 272.322 363.615 272.322C365.477 272.322 366.863 273.638 366.863 275.71ZM373.606 273.484V272.462H374.88V282.178H373.606V278.02C373.172 278.79 372.234 279.14 371.324 279.14C369.532 279.14 368.048 277.824 368.048 275.752C368.048 273.68 369.532 272.322 371.324 272.322C372.234 272.322 373.172 272.742 373.606 273.484ZM373.606 275.766C373.606 274.38 372.612 273.568 371.45 273.568C370.274 273.568 369.35 274.464 369.35 275.766C369.35 277.068 370.274 277.894 371.45 277.894C372.5 277.894 373.606 277.166 373.606 275.766ZM381.479 275.99V272.462H382.753V279H381.479V278.02C381.073 278.804 380.163 279.14 379.449 279.14C377.811 279.14 376.915 278.09 376.929 276.242V272.462H378.203V276.158C378.203 277.264 378.735 277.894 379.631 277.894C380.555 277.894 381.479 277.39 381.479 275.99ZM385.715 275.22H389.775C389.621 274.114 388.851 273.47 387.787 273.47C386.709 273.47 385.869 274.114 385.715 275.22ZM391.035 275.71C391.035 275.864 391.035 276.06 391.021 276.214H385.715C385.869 277.32 386.709 277.992 387.829 277.992C388.613 277.992 389.327 277.642 389.705 276.984C390.041 277.138 390.447 277.25 390.797 277.404C390.237 278.566 389.061 279.14 387.787 279.14C385.925 279.14 384.441 277.782 384.441 275.71C384.441 273.638 385.925 272.322 387.787 272.322C389.649 272.322 391.035 273.638 391.035 275.71ZM395.034 276.326L394.138 276.116C392.948 275.794 392.276 275.206 392.388 273.988C392.5 273.036 393.48 272.322 394.656 272.322C395.762 272.322 396.812 272.84 396.924 274.17H395.706C395.636 273.68 395.188 273.428 394.684 273.428C394.194 273.428 393.802 273.666 393.704 274.016C393.648 274.226 393.648 274.394 393.718 274.534C393.844 274.8 394.152 274.94 394.488 275.038L395.454 275.276C396.798 275.612 397.148 276.438 397.148 277.18C397.148 278.412 395.972 279.14 394.614 279.14C393.438 279.14 392.22 278.384 392.178 277.04H393.34C393.382 277.32 393.55 277.628 393.872 277.782C394.166 277.964 394.502 278.034 394.908 278.006C395.51 277.964 395.888 277.642 395.902 277.152C395.916 276.662 395.524 276.438 395.034 276.326ZM400.57 272.462H401.956V273.54H400.57V279H399.296V273.54H398.12V272.462H399.296V269.998H400.57V272.462ZM405.78 276.326L404.884 276.116C403.694 275.794 403.022 275.206 403.134 273.988C403.246 273.036 404.226 272.322 405.402 272.322C406.508 272.322 407.558 272.84 407.67 274.17H406.452C406.382 273.68 405.934 273.428 405.43 273.428C404.94 273.428 404.548 273.666 404.45 274.016C404.394 274.226 404.394 274.394 404.464 274.534C404.59 274.8 404.898 274.94 405.234 275.038L406.2 275.276C407.544 275.612 407.894 276.438 407.894 277.18C407.894 278.412 406.718 279.14 405.36 279.14C404.184 279.14 402.966 278.384 402.924 277.04H404.086C404.128 277.32 404.296 277.628 404.618 277.782C404.912 277.964 405.248 278.034 405.654 278.006C406.256 277.964 406.634 277.642 406.648 277.152C406.662 276.662 406.27 276.438 405.78 276.326Z" fill="#2F3B45"/>
<path d="M346.856 295.37L345.416 295.982C344.93 295.028 344.156 294.632 343.418 294.632C341.816 294.632 340.664 296.342 340.898 298.736C341.276 297.782 342.23 297.404 343.31 297.404C345.47 297.404 347 299.348 346.946 301.436C346.856 303.542 345.11 305.252 343.004 305.162C340.934 305.072 339.458 303.578 339.26 301.13C339.152 299.654 339.224 298.178 339.458 296.684C339.8 294.542 341.348 293.048 343.49 293.102C344.804 293.156 346.046 293.588 346.856 295.37ZM340.88 301.184C340.88 302.498 341.852 303.47 343.076 303.524C344.318 303.578 345.29 302.624 345.344 301.364C345.398 300.086 344.498 299.078 343.256 299.024C342.014 298.97 340.934 299.924 340.88 301.184ZM349.19 299.15C349.19 295.802 350.072 293.102 353.456 293.102C356.84 293.102 357.704 295.802 357.704 299.15C357.704 302.462 356.84 305.162 353.456 305.162C350.072 305.162 349.19 302.462 349.19 299.15ZM350.81 299.15C350.81 301.58 351.35 303.56 353.456 303.56C355.562 303.56 356.102 301.58 356.102 299.15C356.102 296.702 355.562 294.722 353.456 294.722C351.35 294.722 350.81 296.702 350.81 299.15ZM368.476 292.886L362.554 305H361.366L367.288 292.886H368.476ZM359.584 295.298C359.584 293.948 360.61 292.886 361.978 292.886C363.328 292.886 364.39 293.948 364.39 295.298C364.39 296.666 363.328 297.692 361.978 297.692C360.61 297.692 359.584 296.666 359.584 295.298ZM360.844 295.298C360.844 295.946 361.33 296.432 361.978 296.432C362.608 296.432 363.13 295.946 363.13 295.298C363.13 294.668 362.608 294.146 361.978 294.146C361.33 294.146 360.844 294.668 360.844 295.298ZM365.704 302.786C365.704 301.436 366.73 300.374 368.098 300.374C369.448 300.374 370.51 301.436 370.51 302.786C370.51 304.154 369.448 305.18 368.098 305.18C366.73 305.18 365.704 304.154 365.704 302.786ZM366.964 302.786C366.964 303.434 367.45 303.92 368.098 303.92C368.728 303.92 369.25 303.434 369.25 302.786C369.25 302.156 368.728 301.634 368.098 301.634C367.45 301.634 366.964 302.156 366.964 302.786Z" fill="#4040D9"/>
<path d="M470.926 275.374H474.118L472.522 271.09L470.926 275.374ZM474.566 276.55H470.478L469.54 279H468.154L471.822 269.354H473.222L476.876 279H475.504L474.566 276.55ZM482.471 275.99V272.462H483.745V279H482.471V278.02C482.065 278.804 481.155 279.14 480.441 279.14C478.803 279.14 477.907 278.09 477.921 276.242V272.462H479.195V276.158C479.195 277.264 479.727 277.894 480.623 277.894C481.547 277.894 482.471 277.39 482.471 275.99ZM491.033 279V277.992C490.599 278.72 489.647 279.14 488.737 279.14C486.945 279.14 485.433 277.796 485.433 275.724C485.433 273.638 486.931 272.322 488.723 272.322C489.689 272.322 490.599 272.7 491.033 273.442V268.906H492.307V279H491.033ZM491.019 275.71C491.019 274.31 489.913 273.568 488.849 273.568C487.673 273.568 486.735 274.422 486.735 275.71C486.735 276.998 487.673 277.894 488.849 277.894C490.011 277.894 491.019 277.096 491.019 275.71ZM495.699 272.462V279H494.439V272.462H495.699ZM494.187 270.054C494.187 269.564 494.579 269.228 495.069 269.228C495.559 269.228 495.951 269.564 495.951 270.054C495.951 270.544 495.559 270.88 495.069 270.88C494.579 270.88 494.187 270.544 494.187 270.054ZM499.594 272.462H500.98V273.54H499.594V279H498.32V273.54H497.144V272.462H498.32V269.998H499.594V272.462ZM515.74 269.354H517.14L513.878 279H512.744L511.036 272.98L509.342 279H508.208L504.946 269.354H506.346L508.768 276.9L510.546 270.656H511.54L513.318 276.9L515.74 269.354ZM518.603 275.22H522.663C522.509 274.114 521.739 273.47 520.675 273.47C519.597 273.47 518.757 274.114 518.603 275.22ZM523.923 275.71C523.923 275.864 523.923 276.06 523.909 276.214H518.603C518.757 277.32 519.597 277.992 520.717 277.992C521.501 277.992 522.215 277.642 522.593 276.984C522.929 277.138 523.335 277.25 523.685 277.404C523.125 278.566 521.949 279.14 520.675 279.14C518.813 279.14 517.329 277.782 517.329 275.71C517.329 273.638 518.813 272.322 520.675 272.322C522.537 272.322 523.923 273.638 523.923 275.71ZM526.383 275.22H530.443C530.289 274.114 529.519 273.47 528.455 273.47C527.377 273.47 526.537 274.114 526.383 275.22ZM531.703 275.71C531.703 275.864 531.703 276.06 531.689 276.214H526.383C526.537 277.32 527.377 277.992 528.497 277.992C529.281 277.992 529.995 277.642 530.373 276.984C530.709 277.138 531.115 277.25 531.465 277.404C530.905 278.566 529.729 279.14 528.455 279.14C526.593 279.14 525.109 277.782 525.109 275.71C525.109 273.638 526.593 272.322 528.455 272.322C530.317 272.322 531.703 273.638 531.703 275.71ZM534.582 275.808V279H533.322V268.906H534.582V274.744L536.836 272.462H538.572L535.772 275.29L539.244 279H537.564L534.582 275.808ZM542.579 276.326L541.683 276.116C540.493 275.794 539.821 275.206 539.933 273.988C540.045 273.036 541.025 272.322 542.201 272.322C543.307 272.322 544.357 272.84 544.469 274.17H543.251C543.181 273.68 542.733 273.428 542.229 273.428C541.739 273.428 541.347 273.666 541.249 274.016C541.193 274.226 541.193 274.394 541.263 274.534C541.389 274.8 541.697 274.94 542.033 275.038L542.999 275.276C544.343 275.612 544.693 276.438 544.693 277.18C544.693 278.412 543.517 279.14 542.159 279.14C540.983 279.14 539.765 278.384 539.723 277.04H540.885C540.927 277.32 541.095 277.628 541.417 277.782C541.711 277.964 542.047 278.034 542.453 278.006C543.055 277.964 543.433 277.642 543.447 277.152C543.461 276.662 543.069 276.438 542.579 276.326Z" fill="#2F3B45"/>
<path d="M506.664 305V295.298L504.756 295.964V294.416L508.284 293.138V305H506.664Z" fill="#4040D9"/>
<path d="M172.5 304L166.005 296.5L178.995 296.5L172.5 304Z" fill="#8BB739"/>
<path d="M329.5 304L323.005 296.5L335.995 296.5L329.5 304Z" fill="#8BB739"/>
<defs>
<clipPath id="clip0_18022_1765">
<rect width="10" height="8" fill="white" transform="translate(23 88)"/>
</clipPath>
<clipPath id="clip1_18022_1765">
<rect width="10" height="8" fill="white" transform="translate(23 177)"/>
</clipPath>
<clipPath id="clip2_18022_1765">
<rect width="10" height="8" fill="white" transform="translate(23 197)"/>
</clipPath>
</defs>
</svg>
